<mxfile host="app.diagrams.net" modified="2023-07-21T02:34:46.596Z" agent="Mozilla/5.0 (Windows NT 10.0; Win64; x64; rv:109.0) Gecko/20100101 Firefox/115.0" etag="dzoTsF7GTkh8UlGnmpyG" version="21.6.3" type="google">
  <diagram name="Page-1" id="MUg1KlRSW98XbIXqhREM">
    <mxGraphModel grid="1" page="1" gridSize="10" guides="1" tooltips="1" connect="1" arrows="1" fold="1" pageScale="1" pageWidth="850" pageHeight="1100" math="0" shadow="0">
      <root>
        <mxCell id="0" />
        <mxCell id="1" parent="0" />
        <mxCell id="SH4Md9_Pp-Cn4Y0DenzI-4" value=":Customer" style="shape=umlLifeline;perimeter=lifelinePerimeter;whiteSpace=wrap;html=1;container=1;dropTarget=0;collapsible=0;recursiveResize=0;outlineConnect=0;portConstraint=eastwest;newEdgeStyle={&quot;edgeStyle&quot;:&quot;elbowEdgeStyle&quot;,&quot;elbow&quot;:&quot;vertical&quot;,&quot;curved&quot;:0,&quot;rounded&quot;:0};" vertex="1" parent="1">
          <mxGeometry x="270" y="-120" width="100" height="840" as="geometry" />
        </mxCell>
        <mxCell id="SH4Md9_Pp-Cn4Y0DenzI-8" value="" style="html=1;points=[];perimeter=orthogonalPerimeter;outlineConnect=0;targetShapes=umlLifeline;portConstraint=eastwest;newEdgeStyle={&quot;edgeStyle&quot;:&quot;elbowEdgeStyle&quot;,&quot;elbow&quot;:&quot;vertical&quot;,&quot;curved&quot;:0,&quot;rounded&quot;:0};" vertex="1" parent="SH4Md9_Pp-Cn4Y0DenzI-4">
          <mxGeometry x="50" y="100" width="10" height="690" as="geometry" />
        </mxCell>
        <mxCell id="SH4Md9_Pp-Cn4Y0DenzI-6" value="data does not exist in systems" style="shape=umlFrame;whiteSpace=wrap;html=1;pointerEvents=0;recursiveResize=0;container=1;collapsible=0;width=190;height=30;" vertex="1" parent="1">
          <mxGeometry x="270" y="220" width="520" height="190" as="geometry" />
        </mxCell>
        <mxCell id="SH4Md9_Pp-Cn4Y0DenzI-9" value="setCustomerDetails({name, address, email, phoneNumber})" style="html=1;verticalAlign=bottom;endArrow=block;edgeStyle=elbowEdgeStyle;elbow=vertical;curved=0;rounded=0;" edge="1" parent="SH4Md9_Pp-Cn4Y0DenzI-6" target="SH4Md9_Pp-Cn4Y0DenzI-7">
          <mxGeometry width="80" relative="1" as="geometry">
            <mxPoint x="60" y="80" as="sourcePoint" />
            <mxPoint x="140" y="80" as="targetPoint" />
          </mxGeometry>
        </mxCell>
        <mxCell id="SH4Md9_Pp-Cn4Y0DenzI-14" value="" style="html=1;verticalAlign=bottom;labelBackgroundColor=none;endArrow=block;endFill=1;dashed=1;rounded=0;" edge="1" parent="SH4Md9_Pp-Cn4Y0DenzI-6" source="SH4Md9_Pp-Cn4Y0DenzI-7">
          <mxGeometry width="160" relative="1" as="geometry">
            <mxPoint x="409.5" y="129.5" as="sourcePoint" />
            <mxPoint x="60" y="130" as="targetPoint" />
          </mxGeometry>
        </mxCell>
        <mxCell id="SH4Md9_Pp-Cn4Y0DenzI-15" value="CustomerDetailReference" style="edgeLabel;html=1;align=center;verticalAlign=middle;resizable=0;points=[];" connectable="0" vertex="1" parent="SH4Md9_Pp-Cn4Y0DenzI-14">
          <mxGeometry x="0.1544" y="1" relative="1" as="geometry">
            <mxPoint x="19" y="-10" as="offset" />
          </mxGeometry>
        </mxCell>
        <mxCell id="SH4Md9_Pp-Cn4Y0DenzI-10" value="data exists in systems" style="shape=umlFrame;whiteSpace=wrap;html=1;pointerEvents=0;recursiveResize=0;container=1;collapsible=0;width=190;height=30;" vertex="1" parent="1">
          <mxGeometry x="270" y="410" width="680" height="210" as="geometry" />
        </mxCell>
        <mxCell id="SH4Md9_Pp-Cn4Y0DenzI-11" value="setCustomerDetails({name, address, email, phoneNumber})" style="html=1;verticalAlign=bottom;endArrow=block;edgeStyle=elbowEdgeStyle;elbow=vertical;curved=0;rounded=0;" edge="1" parent="SH4Md9_Pp-Cn4Y0DenzI-10" target="SH4Md9_Pp-Cn4Y0DenzI-7">
          <mxGeometry width="80" relative="1" as="geometry">
            <mxPoint x="60" y="129.6" as="sourcePoint" />
            <mxPoint x="410" y="129.50000000000009" as="targetPoint" />
          </mxGeometry>
        </mxCell>
        <mxCell id="SH4Md9_Pp-Cn4Y0DenzI-19" value="updateCustomer({idNumber, date, licenseNumber})" style="html=1;align=left;spacingLeft=2;endArrow=block;rounded=0;edgeStyle=orthogonalEdgeStyle;curved=0;rounded=0;" edge="1" parent="SH4Md9_Pp-Cn4Y0DenzI-10">
          <mxGeometry relative="1" as="geometry">
            <mxPoint x="60" y="65" as="sourcePoint" />
            <Array as="points">
              <mxPoint x="90" y="95" />
            </Array>
            <mxPoint x="65" y="95" as="targetPoint" />
          </mxGeometry>
        </mxCell>
        <mxCell id="SH4Md9_Pp-Cn4Y0DenzI-13" value="getCustomerData()" style="html=1;verticalAlign=bottom;endArrow=block;edgeStyle=elbowEdgeStyle;elbow=vertical;curved=0;rounded=0;" edge="1" parent="1" target="SH4Md9_Pp-Cn4Y0DenzI-8">
          <mxGeometry x="-0.7003" width="80" relative="1" as="geometry">
            <mxPoint x="970" y="650" as="sourcePoint" />
            <mxPoint x="340" y="650" as="targetPoint" />
            <Array as="points">
              <mxPoint x="940" y="650" />
            </Array>
            <mxPoint as="offset" />
          </mxGeometry>
        </mxCell>
        <mxCell id="SH4Md9_Pp-Cn4Y0DenzI-23" value="Customer" style="shape=umlActor;verticalLabelPosition=bottom;verticalAlign=top;html=1;" vertex="1" parent="1">
          <mxGeometry x="-60" y="-160" width="30" height="60" as="geometry" />
        </mxCell>
        <mxCell id="SH4Md9_Pp-Cn4Y0DenzI-26" value="" style="endArrow=none;startArrow=none;endFill=0;startFill=0;endSize=8;html=1;verticalAlign=bottom;dashed=1;labelBackgroundColor=none;rounded=0;strokeColor=default;" edge="1" parent="1">
          <mxGeometry width="160" relative="1" as="geometry">
            <mxPoint x="-45" y="-80" as="sourcePoint" />
            <mxPoint x="-45" y="730" as="targetPoint" />
          </mxGeometry>
        </mxCell>
        <mxCell id="SH4Md9_Pp-Cn4Y0DenzI-7" value=":CustomerDetails" style="shape=umlLifeline;perimeter=lifelinePerimeter;whiteSpace=wrap;html=1;container=1;dropTarget=0;collapsible=0;recursiveResize=0;outlineConnect=0;portConstraint=eastwest;newEdgeStyle={&quot;edgeStyle&quot;:&quot;elbowEdgeStyle&quot;,&quot;elbow&quot;:&quot;vertical&quot;,&quot;curved&quot;:0,&quot;rounded&quot;:0};movable=1;resizable=1;rotatable=1;deletable=1;editable=1;locked=0;connectable=1;" vertex="1" parent="1">
          <mxGeometry x="710" y="-120" width="120" height="840" as="geometry" />
        </mxCell>
        <mxCell id="SH4Md9_Pp-Cn4Y0DenzI-12" value="" style="html=1;points=[];perimeter=orthogonalPerimeter;outlineConnect=0;targetShapes=umlLifeline;portConstraint=eastwest;newEdgeStyle={&quot;edgeStyle&quot;:&quot;elbowEdgeStyle&quot;,&quot;elbow&quot;:&quot;vertical&quot;,&quot;curved&quot;:0,&quot;rounded&quot;:0};" vertex="1" parent="SH4Md9_Pp-Cn4Y0DenzI-7">
          <mxGeometry x="60" y="400" width="10" height="90" as="geometry" />
        </mxCell>
        <mxCell id="SH4Md9_Pp-Cn4Y0DenzI-16" value="" style="html=1;points=[];perimeter=orthogonalPerimeter;outlineConnect=0;targetShapes=umlLifeline;portConstraint=eastwest;newEdgeStyle={&quot;edgeStyle&quot;:&quot;elbowEdgeStyle&quot;,&quot;elbow&quot;:&quot;vertical&quot;,&quot;curved&quot;:0,&quot;rounded&quot;:0};" vertex="1" parent="SH4Md9_Pp-Cn4Y0DenzI-7">
          <mxGeometry x="60" y="640" width="10" height="90" as="geometry" />
        </mxCell>
        <mxCell id="SH4Md9_Pp-Cn4Y0DenzI-20" value="&lt;div&gt;updateCustomerDetails({&lt;/div&gt;&lt;div&gt;&lt;span style=&quot;white-space: pre;&quot;&gt;&#x9;&lt;/span&gt;idNumber,&amp;nbsp;&lt;/div&gt;&lt;div&gt;&lt;span style=&quot;white-space: pre;&quot;&gt;&#x9;&lt;/span&gt;date,&amp;nbsp;&lt;/div&gt;&lt;div&gt;&lt;span style=&quot;white-space: pre;&quot;&gt;&#x9;&lt;/span&gt;licenseNumber&lt;/div&gt;&lt;div&gt;})&lt;/div&gt;" style="html=1;align=left;spacingLeft=2;endArrow=block;rounded=0;edgeStyle=orthogonalEdgeStyle;curved=0;rounded=0;" edge="1" parent="SH4Md9_Pp-Cn4Y0DenzI-7">
          <mxGeometry relative="1" as="geometry">
            <mxPoint x="70" y="680" as="sourcePoint" />
            <Array as="points">
              <mxPoint x="100" y="710" />
            </Array>
            <mxPoint x="75" y="710" as="targetPoint" />
          </mxGeometry>
        </mxCell>
        <mxCell id="SH4Md9_Pp-Cn4Y0DenzI-27" value="*Included this call show next step" style="text;html=1;align=center;verticalAlign=middle;resizable=0;points=[];autosize=1;strokeColor=none;fillColor=none;" vertex="1" parent="1">
          <mxGeometry x="765" y="660" width="210" height="30" as="geometry" />
        </mxCell>
        <mxCell id="SH4Md9_Pp-Cn4Y0DenzI-28" value=":Reservation" style="shape=umlLifeline;perimeter=lifelinePerimeter;whiteSpace=wrap;html=1;container=1;dropTarget=0;collapsible=0;recursiveResize=0;outlineConnect=0;portConstraint=eastwest;newEdgeStyle={&quot;edgeStyle&quot;:&quot;elbowEdgeStyle&quot;,&quot;elbow&quot;:&quot;vertical&quot;,&quot;curved&quot;:0,&quot;rounded&quot;:0};movable=1;resizable=1;rotatable=1;deletable=1;editable=1;locked=0;connectable=1;" vertex="1" parent="1">
          <mxGeometry x="110" y="-120" width="120" height="840" as="geometry" />
        </mxCell>
        <mxCell id="SH4Md9_Pp-Cn4Y0DenzI-43" value="pre-condtions" style="shape=umlFrame;whiteSpace=wrap;html=1;pointerEvents=0;recursiveResize=0;container=1;collapsible=0;width=190;height=30;" vertex="1" parent="1">
          <mxGeometry x="-90" y="-40" width="460" height="180" as="geometry" />
        </mxCell>
        <mxCell id="SH4Md9_Pp-Cn4Y0DenzI-35" value="createReservation(resData)" style="html=1;verticalAlign=bottom;startArrow=none;startFill=0;endArrow=block;startSize=8;edgeStyle=elbowEdgeStyle;elbow=vertical;curved=0;rounded=0;" edge="1" parent="SH4Md9_Pp-Cn4Y0DenzI-43">
          <mxGeometry width="60" relative="1" as="geometry">
            <mxPoint x="40.5" y="50" as="sourcePoint" />
            <mxPoint x="260.0000000000002" y="50.15789473684208" as="targetPoint" />
            <mxPoint as="offset" />
          </mxGeometry>
        </mxCell>
        <mxCell id="SH4Md9_Pp-Cn4Y0DenzI-34" value="" style="html=1;points=[];perimeter=orthogonalPerimeter;outlineConnect=0;targetShapes=umlLifeline;portConstraint=eastwest;newEdgeStyle={&quot;edgeStyle&quot;:&quot;elbowEdgeStyle&quot;,&quot;elbow&quot;:&quot;vertical&quot;,&quot;curved&quot;:0,&quot;rounded&quot;:0};" vertex="1" parent="SH4Md9_Pp-Cn4Y0DenzI-43">
          <mxGeometry x="260" y="40" width="10" height="720" as="geometry" />
        </mxCell>
        <mxCell id="SH4Md9_Pp-Cn4Y0DenzI-36" value="createCustomer(id)" style="html=1;verticalAlign=bottom;startArrow=none;startFill=0;endArrow=block;startSize=8;edgeStyle=elbowEdgeStyle;elbow=horizontal;curved=0;rounded=0;" edge="1" parent="SH4Md9_Pp-Cn4Y0DenzI-43">
          <mxGeometry width="60" relative="1" as="geometry">
            <mxPoint x="270" y="70" as="sourcePoint" />
            <mxPoint x="410" y="70" as="targetPoint" />
            <mxPoint as="offset" />
          </mxGeometry>
        </mxCell>
        <mxCell id="SH4Md9_Pp-Cn4Y0DenzI-38" value="" style="html=1;verticalAlign=bottom;labelBackgroundColor=none;endArrow=block;endFill=1;dashed=1;rounded=0;" edge="1" parent="SH4Md9_Pp-Cn4Y0DenzI-43">
          <mxGeometry width="160" relative="1" as="geometry">
            <mxPoint x="410" y="94.47" as="sourcePoint" />
            <mxPoint x="270" y="94.47" as="targetPoint" />
          </mxGeometry>
        </mxCell>
        <mxCell id="SH4Md9_Pp-Cn4Y0DenzI-39" value="idNumber" style="edgeLabel;html=1;align=center;verticalAlign=middle;resizable=0;points=[];" connectable="0" vertex="1" parent="SH4Md9_Pp-Cn4Y0DenzI-38">
          <mxGeometry x="0.1544" y="1" relative="1" as="geometry">
            <mxPoint x="19" y="-10" as="offset" />
          </mxGeometry>
        </mxCell>
        <mxCell id="SH4Md9_Pp-Cn4Y0DenzI-41" value="" style="html=1;verticalAlign=bottom;labelBackgroundColor=none;endArrow=block;endFill=1;dashed=1;rounded=0;" edge="1" parent="SH4Md9_Pp-Cn4Y0DenzI-43">
          <mxGeometry width="160" relative="1" as="geometry">
            <mxPoint x="260" y="110" as="sourcePoint" />
            <mxPoint x="50" y="110" as="targetPoint" />
          </mxGeometry>
        </mxCell>
        <mxCell id="SH4Md9_Pp-Cn4Y0DenzI-42" value="reservationId" style="edgeLabel;html=1;align=center;verticalAlign=middle;resizable=0;points=[];" connectable="0" vertex="1" parent="SH4Md9_Pp-Cn4Y0DenzI-41">
          <mxGeometry x="0.1544" y="1" relative="1" as="geometry">
            <mxPoint x="19" y="-10" as="offset" />
          </mxGeometry>
        </mxCell>
        <mxCell id="SH4Md9_Pp-Cn4Y0DenzI-5" value="sendCustomerData(data)" style="html=1;verticalAlign=bottom;startArrow=none;startFill=0;endArrow=block;startSize=8;edgeStyle=elbowEdgeStyle;elbow=vertical;curved=0;rounded=0;" edge="1" parent="1" target="SH4Md9_Pp-Cn4Y0DenzI-4">
          <mxGeometry x="0.2994" width="60" relative="1" as="geometry">
            <mxPoint x="-50" y="190" as="sourcePoint" />
            <mxPoint x="190" y="190" as="targetPoint" />
            <mxPoint as="offset" />
          </mxGeometry>
        </mxCell>
        <mxCell id="SH4Md9_Pp-Cn4Y0DenzI-48" value="&lt;div&gt;*Either data does&amp;nbsp;&lt;/div&gt;&lt;div&gt;or does not exist&lt;/div&gt;" style="text;html=1;align=center;verticalAlign=middle;resizable=0;points=[];autosize=1;strokeColor=none;fillColor=none;" vertex="1" parent="1">
          <mxGeometry x="810" y="340" width="120" height="40" as="geometry" />
        </mxCell>
      </root>
    </mxGraphModel>
  </diagram>
</mxfile>
